HIERARCHY
ROOT SpineBase
{
  OFFSET 0.000000 0.000000 0.000000
  CHANNELS 6 Xposition Yposition Zposition Zrotation Xrotation Yrotation
  JOINT SpineMid
  {
    OFFSET -0.000000 28.312089 0.000000
    CHANNELS 3 Zrotation Xrotation Yrotation
    JOINT SpineShoulder
    {
      OFFSET -0.168418 21.114813 -0.615100
      CHANNELS 3 Zrotation Xrotation Yrotation
      JOINT Neck
      {
        OFFSET -0.088976 6.961711 -0.510582
        CHANNELS 3 Zrotation Xrotation Yrotation
        JOINT Head
        {
          OFFSET -4.719052 9.737189 3.417142
          CHANNELS 3 Zrotation Xrotation Yrotation
          End Site
          {
            OFFSET 0 0 0
          }
        }
      }
      JOINT ShoulderLeft
      {
        OFFSET -2.178823 -6.883895 -23.154214
        CHANNELS 3 Zrotation Xrotation Yrotation
        JOINT ElbowLeft
        {
          OFFSET -10.209531 -22.268009 8.180112
          CHANNELS 3 Zrotation Xrotation Yrotation
          JOINT WristLeft
          {
            OFFSET -3.914253 -16.433826 1.500544
            CHANNELS 3 Zrotation Xrotation Yrotation
            JOINT HandLeft
            {
              OFFSET -0.383144 3.341922 -0.096535
              CHANNELS 3 Zrotation Xrotation Yrotation
              JOINT HandTipLeft
              {
                OFFSET -1.169440 -3.976436 1.030142
                CHANNELS 3 Zrotation Xrotation Yrotation
                End Site
                {
                  OFFSET 0 0 0
                }
              }
              JOINT ThumbLeft
              {
                OFFSET -1.721979 0.067695 -3.384196
                CHANNELS 3 Zrotation Xrotation Yrotation
                End Site
                {
                  OFFSET 0 0 0
                }
              }
            }
          }
        }
      }
      JOINT ShoulderRight
      {
        OFFSET 4.627082 -4.184797 -13.181940
        CHANNELS 3 Zrotation Xrotation Yrotation
        JOINT ElbowRight
        {
          OFFSET 6.813572 -19.327513 -8.611223
          CHANNELS 3 Zrotation Xrotation Yrotation
          JOINT WristRight
          {
            OFFSET -22.760934 -3.815327 4.771716
            CHANNELS 3 Zrotation Xrotation Yrotation
            JOINT HandRight
            {
              OFFSET -5.093480 -1.077065 2.703389
              CHANNELS 3 Zrotation Xrotation Yrotation
              JOINT HandTipRight
              {
                OFFSET -4.634243 -4.514414 2.499771
                CHANNELS 3 Zrotation Xrotation Yrotation
                End Site
                {
                  OFFSET 0 0 0
                }
              }
              JOINT ThumbRight
              {
                OFFSET 1.240915 8.211141 2.313906
                CHANNELS 3 Zrotation Xrotation Yrotation
                End Site
                {
                  OFFSET 0 0 0
                }
              }
            }
          }
        }
      }
    }
  }
  JOINT HipLeft
  {
    OFFSET -3.598843 -0.259127 -2.750348
    CHANNELS 3 Zrotation Xrotation Yrotation
    JOINT KneeLeft
    {
      OFFSET 16.081055 -32.807153 16.829638
      CHANNELS 3 Zrotation Xrotation Yrotation
      JOINT AnkleLeft
      {
        OFFSET -10.858620 -34.093011 -19.698375
        CHANNELS 3 Zrotation Xrotation Yrotation
        JOINT FootLeft
        {
          OFFSET 1.549916 -7.889967 -0.719154
          CHANNELS 3 Zrotation Xrotation Yrotation
          End Site
          {
            OFFSET 0 0 0
          }
        }
      }
    }
  }
  JOINT HipRight
  {
    OFFSET 3.196965 1.734589 -4.149802
    CHANNELS 3 Zrotation Xrotation Yrotation
    JOINT KneeRight
    {
      OFFSET -5.884868 -34.528719 -2.526200
      CHANNELS 3 Zrotation Xrotation Yrotation
      JOINT AnkleRight
      {
        OFFSET 7.813420 -34.776929 3.476146
        CHANNELS 3 Zrotation Xrotation Yrotation
        JOINT FootRight
        {
          OFFSET 5.981089 -3.440307 4.479755
          CHANNELS 3 Zrotation Xrotation Yrotation
          End Site
          {
            OFFSET 0 0 0
          }
        }
      }
    }
  }
}
MOTION
Frames: 14
Frame Time: 0.033333
11.764497 75.049259 343.708580 0.000000 0.000000 11.636197 -0.000000 0.000000 -11.636197 -0.000000 0.000000 0.000000 -0.000000 0.000000 0.000000 0.000000 0.000000 0.000000 -0.000000 0.000000 0.000000 -0.000000 0.000000 0.000000 -0.000000 0.000000 0.000000 -0.000000 0.000000 0.000000 0.000000 0.000000 0.000000 0.000000 0.000000 0.000000 -0.000000 0.000000 0.000000 -0.000000 0.000000 0.000000 -0.000000 0.000000 0.000000 -0.000000 0.000000 0.000000 0.000000 0.000000 0.000000 0.000000 0.000000 0.000000 -0.000000 0.000000 -11.636197 -0.000000 0.000000 0.000000 -0.000000 0.000000 0.000000 0.000000 0.000000 0.000000 -0.000000 0.000000 -11.636197 -0.000000 0.000000 0.000000 -0.000000 0.000000 0.000000 0.000000 0.000000 0.000000
11.537400 75.048243 343.323596 0.132329 -0.154611 12.355206 -0.096182 0.179344 -12.354877 -0.000000 0.000000 0.000000 -0.691175 -1.264813 -0.380660 0.000000 0.000000 0.000000 0.678279 0.816751 -0.130838 5.696362 -2.816683 1.399518 -38.681134 30.381395 11.370782 40.335132 -29.823076 12.831606 0.000000 0.000000 0.000000 0.000000 0.000000 0.000000 -0.462484 -0.941333 -0.130262 1.518762 1.187401 -0.030060 -1.016532 -0.432564 1.117438 1.250567 0.533159 -0.657087 0.000000 0.000000 0.000000 0.000000 0.000000 0.000000 -0.096182 0.179344 -12.354877 1.961105 -2.015865 -0.463820 1.390438 5.152221 0.625942 0.000000 0.000000 0.000000 0.609008 -0.265759 -12.363336 -0.784146 0.283774 0.010933 -0.000000 0.000000 0.000000 0.000000 0.000000 0.000000
11.326553 75.041312 342.957192 0.249260 -0.318785 12.861081 -0.172053 0.366268 -12.859838 -0.000000 0.000000 0.000000 -1.323941 -2.357800 -0.714608 0.000000 0.000000 0.000000 1.261722 1.440886 -0.215094 8.369490 -4.827530 2.442574 -118.157400 41.886678 67.050204 121.081605 -37.428879 70.710540 0.000000 0.000000 0.000000 0.000000 0.000000 0.000000 -0.845095 -1.740481 -0.252291 2.971560 2.235390 -0.096377 -2.046297 -0.882720 2.283953 2.296428 1.077586 -1.554554 0.000000 0.000000 0.000000 0.000000 0.000000 0.000000 -0.172053 0.366268 -12.859838 4.077112 -4.427551 -0.815580 3.482753 11.645856 0.771043 0.000000 0.000000 0.000000 1.218603 -0.484203 -12.882955 -1.545323 0.518876 0.031546 -0.000000 0.000000 0.000000 0.000000 0.000000 0.000000
11.131956 75.028466 342.609366 0.350721 -0.492548 13.162144 -0.238571 -0.258078 -13.160697 -0.052737 -0.035014 0.000088 -2.013523 -2.438964 -0.964403 0.000000 0.000000 0.000000 1.625883 2.706734 -0.271406 9.172327 -6.443787 3.134200 -145.522090 30.648206 86.724025 146.609394 -20.752288 90.508668 0.000000 0.000000 0.000000 0.000000 0.000000 0.000000 -1.271049 -1.565024 -0.343875 4.335148 3.136712 -0.181993 -3.062946 -1.348184 3.518817 3.133519 1.638923 -2.718121 0.000000 0.000000 0.000000 0.000000 0.000000 0.000000 -0.229363 0.559464 -13.159516 6.404644 -7.308293 -1.019833 6.358606 19.462483 0.041781 0.000000 0.000000 0.000000 1.831482 -0.648112 -13.204613 -3.142691 0.430783 -0.078276 0.859925 0.274978 0.145462 0.000000 0.000000 0.000000
10.953608 75.009705 342.280120 0.436639 -0.675925 13.263714 -0.295936 -0.313576 -13.261195 -0.072246 -0.045510 -0.000451 -2.529897 -2.908074 -1.163344 0.000000 0.000000 0.000000 1.994313 3.210924 -0.263638 8.511976 -7.888220 3.490114 -154.640952 23.819553 95.136524 154.321055 -9.483587 99.084623 0.000000 0.000000 0.000000 0.000000 0.000000 0.000000 -1.515639 -1.820574 -0.429208 5.581679 3.884485 -0.268904 -4.035926 -1.826456 4.846376 3.760992 2.226306 -4.177061 0.000000 0.000000 0.000000 0.000000 0.000000 0.000000 -0.269940 0.758061 -13.259352 9.017385 -10.744285 -1.020050 10.193588 28.377773 -2.108649 0.000000 0.000000 0.000000 2.449246 -0.750621 -13.334949 -4.032014 0.456936 -0.080693 1.037321 0.384771 0.186337 0.000000 0.000000 0.000000
10.791510 74.985029 341.969454 0.506944 -0.868939 13.168244 -0.340790 -0.354711 -13.164531 -0.092661 -0.055602 -0.001277 -2.959402 -3.199306 -1.293807 0.000000 0.000000 0.000000 2.275540 3.517722 -0.199310 6.347342 -9.324258 3.488782 -158.904089 18.677531 103.483445 157.076831 -1.666986 107.275201 0.000000 0.000000 0.000000 0.000000 0.000000 0.000000 -1.670191 -1.944641 -0.498477 6.680541 4.472454 -0.339152 -4.931919 -2.315766 6.298780 4.181536 2.853322 -5.966543 0.000000 0.000000 0.000000 0.000000 0.000000 0.000000 -0.295712 0.961556 -13.161918 12.014029 -14.829264 -0.727209 15.360033 37.913079 -6.432242 0.000000 0.000000 0.000000 3.072363 -0.785041 -13.277831 -4.841986 0.422156 -0.075017 1.161749 0.504815 0.224016 0.000000 0.000000 0.000000
10.731803 74.893471 341.739135 0.591762 -1.052629 14.632564 -0.375045 -0.353864 -14.626131 -0.107248 -0.064911 -0.000273 -3.468773 -3.301965 -1.289851 0.000000 0.000000 0.000000 2.222106 3.921064 -0.306186 3.782952 -11.234913 3.584520 -163.727037 2.846146 79.306992 172.711540 7.992292 82.467292 0.000000 0.000000 0.000000 0.000000 0.000000 0.000000 -1.745620 -1.978096 -0.570514 7.934402 4.985462 -0.489877 -5.382141 -2.498739 8.126368 3.781234 3.416641 -8.383804 0.000000 0.000000 0.000000 0.000000 0.000000 0.000000 -0.306738 1.167945 -14.624002 16.889630 -21.644098 0.473919 27.163594 50.821951 -18.695464 0.000000 0.000000 0.000000 3.636253 -0.989834 -14.764174 -5.679971 0.492114 -0.070236 1.315926 0.589635 0.256714 0.000000 0.000000 0.000000
10.653777 74.869931 341.465201 0.702330 -1.316418 12.611592 -0.391547 -0.383134 -12.600994 -0.138448 -0.072562 0.000546 -3.871253 -3.029132 -1.161874 0.000000 0.000000 0.000000 2.624416 3.803298 0.030873 -8.274144 -10.308788 0.704895 -159.103665 -10.383072 -140.818163 171.806369 -10.507234 -140.467710 0.000000 0.000000 0.000000 0.000000 0.000000 0.000000 -1.775702 -1.846397 -0.633049 8.904171 5.387082 -0.803143 -5.394377 -3.366681 14.137677 4.585040 4.365598 -14.483224 0.000000 0.000000 0.000000 0.000000 0.000000 0.000000 -0.398115 1.437941 -12.598528 22.796396 -29.076058 2.681245 43.154528 59.986886 -37.849904 0.000000 0.000000 0.000000 4.221540 -0.520474 -12.844881 -6.282516 0.116531 -0.046733 1.342478 0.766447 0.296833 0.000000 0.000000 0.000000
10.482548 74.851081 341.166031 0.689294 -1.574969 11.612368 -0.380388 -0.382193 -11.602085 -0.159219 -0.079383 -0.002054 -3.890491 -2.586156 -1.021767 0.000000 0.000000 0.000000 2.607645 3.145507 0.456990 -22.120267 -11.835346 -1.852945 151.379204 -47.031888 62.035346 -118.545874 58.190271 70.476188 0.000000 0.000000 0.000000 0.000000 0.000000 0.000000 -1.561968 -1.556401 -0.691516 9.366657 5.476955 -0.581965 -6.461835 -4.118767 15.524169 6.408070 4.177149 -15.169536 0.000000 0.000000 0.000000 0.000000 0.000000 0.000000 -0.358364 1.681412 -11.597634 28.483169 -35.309756 5.528904 61.054980 64.096533 -59.566427 0.000000 0.000000 0.000000 4.921288 -0.253547 -11.931516 -6.819812 -0.142062 -0.022863 1.254394 0.944784 0.326782 0.000000 0.000000 0.000000
10.343923 74.839726 340.860498 0.677651 -1.780029 9.903080 -0.362499 -0.397831 -9.893138 -0.165978 -0.091037 -0.003468 -3.809427 -2.177211 -0.927052 0.000000 0.000000 0.000000 1.387024 1.295603 1.033664 -39.026778 -21.530288 -5.539576 103.592119 -45.164950 2.617740 -30.481269 28.917236 27.022184 0.000000 0.000000 0.000000 0.000000 0.000000 0.000000 -1.295744 -1.126473 -0.721762 8.813376 5.108820 0.616227 -8.435568 -5.265549 13.980652 11.610687 5.314448 -14.724164 0.000000 0.000000 0.000000 0.000000 0.000000 0.000000 0.318181 1.415127 -9.686020 31.504218 -39.139803 7.584756 73.447760 64.570790 -74.745699 0.000000 0.000000 0.000000 5.452039 0.146949 -10.315062 -7.126538 -0.545619 -0.018092 1.099311 1.202877 0.368200 0.000000 0.000000 0.000000
10.154393 74.838310 340.591127 0.570994 -1.900107 8.567639 -0.346233 -0.380666 -8.562714 -0.175228 -0.094276 -0.008970 -3.649857 -2.355097 -1.076989 0.000000 0.000000 0.000000 0.254064 -0.542805 1.500640 -69.137824 -36.681579 -18.923602 138.269032 -19.425784 -37.720804 -13.688537 -44.916371 63.527313 0.000000 0.000000 0.000000 0.000000 0.000000 0.000000 -0.784524 -0.569513 -0.728160 8.747952 4.494018 3.156042 -10.796861 -4.459094 6.070061 13.060649 8.248986 -12.438354 0.000000 0.000000 0.000000 0.000000 0.000000 0.000000 0.586009 1.239715 -8.371315 32.000389 -39.852843 8.150969 76.271517 64.295215 -78.132911 0.000000 0.000000 0.000000 5.962487 0.453735 -9.062711 -7.283700 -0.943774 -0.012326 0.881296 1.456624 0.403983 0.000000 0.000000 0.000000
10.002383 74.815951 340.311113 0.519804 -2.056375 8.030961 -0.331292 -0.391320 -8.028577 -0.174769 -0.105791 -0.011362 -3.330433 -2.030705 -1.082660 0.000000 0.000000 0.000000 -1.084683 -2.419699 1.920466 -107.392368 -35.511603 -35.931564 155.231528 -21.769101 -47.612991 173.220429 1.068950 -34.465905 0.000000 0.000000 0.000000 0.000000 0.000000 0.000000 -0.206168 0.104069 -0.794012 6.976569 3.550616 4.848002 -9.949911 -3.451061 2.486190 9.156723 7.486271 -10.356820 0.000000 0.000000 0.000000 0.000000 0.000000 0.000000 0.827194 1.109578 -7.854278 28.174004 -36.859805 6.395334 67.331368 63.590384 -66.760863 0.000000 0.000000 0.000000 6.282551 0.644269 -8.574430 -7.447933 -1.301747 -0.057827 0.793134 1.786634 0.468351 0.000000 0.000000 0.000000
9.821853 74.799073 340.111939 0.418210 -2.272197 8.309167 -0.272835 -0.387623 -8.311559 -0.177529 -0.098501 -0.013976 -3.026239 -1.561099 -1.017202 0.000000 0.000000 0.000000 -2.355166 -4.419124 2.377274 -130.111554 -27.809683 -40.234075 179.028944 -18.008325 -46.912537 -164.888989 4.669263 -38.045605 0.000000 0.000000 0.000000 0.000000 0.000000 0.000000 0.642910 0.811550 -0.989655 4.649659 2.600260 5.633016 -10.134761 -3.143372 -0.941814 -0.450207 -0.055554 -3.165666 0.000000 0.000000 0.000000 0.000000 0.000000 0.000000 1.243132 1.125038 -8.059814 27.610114 -37.088313 6.567867 68.085111 63.190251 -67.443141 0.000000 0.000000 0.000000 6.633253 0.822117 -8.906552 -7.475505 -1.605405 -0.076585 0.608242 2.043243 0.509357 0.000000 0.000000 0.000000
9.730960 74.759426 339.929332 0.469250 -2.441069 8.799645 -0.296765 -0.423580 -8.800139 -0.182207 -0.115826 -0.013457 -2.763866 -1.468665 -1.183472 0.000000 0.000000 0.000000 -3.037131 -4.337300 2.203728 -144.444081 -21.184891 -41.125484 -159.855967 -1.219336 -48.388814 -142.635240 12.695329 -52.653796 0.000000 0.000000 0.000000 0.000000 0.000000 0.000000 0.816581 1.461615 -0.941342 2.287149 1.650743 5.253901 -8.759155 -1.591729 -6.960877 -7.324812 -9.662978 5.604866 0.000000 0.000000 0.000000 0.000000 0.000000 0.000000 1.474355 0.958214 -8.547263 26.724404 -36.806619 6.537415 68.543965 62.738524 -67.543499 0.000000 0.000000 0.000000 6.768693 0.924052 -9.428583 -7.474985 -1.830050 -0.095687 0.453181 2.256120 0.543911 0.000000 0.000000 0.000000
